<svg width="45" height="45" viewBox="0 0 45 45" fill="none" xmlns="http://www.w3.org/2000/svg">
<path fill-rule="evenodd" clip-rule="evenodd" d="M41.25 15C41.25 12.3938 39.8288 9.92438 37.2488 7.97063C33.9188 5.44688 28.56 3.75 22.5 3.75C16.44 3.75 11.0813 5.44688 7.75125 7.97063C5.17125 9.92438 3.75 12.3938 3.75 15V30C3.75 32.6063 5.17125 35.0756 7.75125 37.0294C11.0813 39.5531 16.44 41.25 22.5 41.25C28.56 41.25 33.9188 39.5531 37.2488 37.0294C39.8288 35.0756 41.25 32.6063 41.25 30V15ZM22.0219 7.50375C17.1 7.58438 12.7406 8.895 10.0144 10.9594C8.4975 12.1088 7.5 13.4663 7.5 15V30C7.5 31.5338 8.4975 32.8913 10.0144 34.0406C12.8288 36.1725 17.3831 37.5 22.5 37.5C27.6169 37.5 32.1713 36.1725 34.9856 34.0406C36.5025 32.8913 37.5 31.5338 37.5 30V15C37.5 13.4663 36.5025 12.1088 34.9856 10.9594C32.1713 8.8275 27.6169 7.5 22.5 7.5L22.0219 7.50375ZM20.0344 24.6281L22.5563 14.5444C22.7456 13.7831 23.3906 13.2225 24.1706 13.1363C24.9506 13.05 25.7006 13.4588 26.0513 14.1619L29.2838 20.625H31.875C32.91 20.625 33.75 21.465 33.75 22.5C33.75 23.535 32.91 24.375 31.875 24.375H28.125C27.4144 24.375 26.7656 23.9738 26.4488 23.3381L24.9656 20.3719L22.4438 30.4556C22.2544 31.2169 21.6094 31.7775 20.8294 31.8638C20.0494 31.95 19.2994 31.5413 18.9488 30.8381L15.7163 24.375H13.125C12.09 24.375 11.25 23.535 11.25 22.5C11.25 21.465 12.09 20.625 13.125 20.625H16.875C17.5856 20.625 18.2344 21.0263 18.5513 21.6619L20.0344 24.6281Z" fill="black"/>
</svg>
