<svg width="45" height="45" viewBox="0 0 45 45" fill="none" xmlns="http://www.w3.org/2000/svg">
<path fill-rule="evenodd" clip-rule="evenodd" d="M7.5 15H5.625C4.59 15 3.75 14.16 3.75 13.125V5.625C3.75 4.59 4.59 3.75 5.625 3.75H39.375C40.41 3.75 41.25 4.59 41.25 5.625V13.125C41.25 14.16 40.41 15 39.375 15H37.5V35.8894C37.5 36.5081 37.1963 37.0856 36.6863 37.4363C33.3394 39.735 28.2319 41.25 22.5 41.25C16.7681 41.25 11.6606 39.735 8.31375 37.4363C7.80375 37.0856 7.5 36.5081 7.5 35.8894V15ZM33.75 15H11.25V34.8581C14.0756 36.5044 18.0769 37.5 22.5 37.5C26.9231 37.5 30.9244 36.5044 33.75 34.8581V15ZM16.875 22.5H28.125C29.16 22.5 30 21.66 30 20.625C30 19.59 29.16 18.75 28.125 18.75H16.875C15.84 18.75 15 19.59 15 20.625C15 21.66 15.84 22.5 16.875 22.5ZM7.5 7.5V11.25H37.5V7.5H7.5Z" fill="black"/>
</svg>
