<svg width="40" height="40" viewBox="0 0 40 40" fill="none" xmlns="http://www.w3.org/2000/svg">
<path fill-rule="evenodd" clip-rule="evenodd" d="M36.6654 13.332C36.6654 11.0154 35.402 8.82036 33.1087 7.0837C30.1487 4.84036 25.3837 3.33203 19.9987 3.33203C14.612 3.33203 9.8487 4.84036 6.88703 7.0837C4.59536 8.82036 3.33203 11.0154 3.33203 13.332V26.6654C3.33203 28.982 4.59536 31.177 6.88703 32.9137C9.8487 35.157 14.612 36.6654 19.9987 36.6654C25.3837 36.6654 30.1487 35.157 33.1087 32.9137C35.402 31.177 36.6654 28.982 36.6654 26.6654V13.332ZM19.5737 6.6687C15.197 6.74036 11.322 7.90536 8.90036 9.74036C7.55203 10.762 6.66536 11.9687 6.66536 13.332V26.6654C6.66536 28.0287 7.55203 29.2354 8.90036 30.257C11.4004 32.152 15.4504 33.332 19.9987 33.332C24.547 33.332 28.5954 32.152 31.0954 30.257C32.4454 29.2354 33.332 28.0287 33.332 26.6654V13.332C33.332 11.9687 32.4454 10.762 31.0954 9.74036C28.5954 7.84536 24.547 6.66536 19.9987 6.66536L19.5737 6.6687ZM19.9987 24.582L25.6654 20.332C26.4004 19.7804 27.447 19.9287 27.9987 20.6654C28.5504 21.402 28.4004 22.447 27.6654 22.9987L20.9987 27.9987C20.4054 28.4437 19.5904 28.4437 18.9987 27.9987L12.332 22.9987C11.5954 22.447 11.447 21.402 11.9987 20.6654C12.5504 19.9287 13.5954 19.7804 14.332 20.332L19.9987 24.582ZM19.9987 16.2487L25.6654 11.9987C26.4004 11.447 27.447 11.5954 27.9987 12.332C28.5504 13.0687 28.4004 14.1137 27.6654 14.6654L20.9987 19.6654C20.4054 20.1104 19.5904 20.1104 18.9987 19.6654L12.332 14.6654C11.5954 14.1137 11.447 13.0687 11.9987 12.332C12.5504 11.5954 13.5954 11.447 14.332 11.9987L19.9987 16.2487Z" fill="black"/>
</svg>
