<svg width="45" height="45" viewBox="0 0 45 45" fill="none" xmlns="http://www.w3.org/2000/svg">
<path fill-rule="evenodd" clip-rule="evenodd" d="M41.25 15C41.25 12.3938 39.8288 9.92438 37.2488 7.97063C33.9188 5.44688 28.5581 3.75 22.5 3.75C16.44 3.75 11.0813 5.44688 7.74938 7.97063C5.17125 9.92438 3.75 12.3938 3.75 15V30C3.75 32.6063 5.17125 35.0756 7.74938 37.0294C11.0813 39.5531 16.44 41.25 22.5 41.25C28.5581 41.25 33.9188 39.5531 37.2488 37.0294C39.8288 35.0756 41.25 32.6063 41.25 30V15ZM37.5 15V30C37.5 31.5338 36.5025 32.8913 34.9838 34.0406C32.1713 36.1725 27.6169 37.5 22.5 37.5C17.3831 37.5 12.8269 36.1725 10.0144 34.0406C8.4975 32.8913 7.5 31.5338 7.5 30V15C7.5 13.4663 8.4975 12.1088 10.0144 10.9594C12.8269 8.8275 17.3831 7.5 22.5 7.5C27.6169 7.5 32.1713 8.8275 34.9838 10.9594C36.5025 12.1088 37.5 13.4663 37.5 15ZM24.6019 27.255L14.5444 17.1975C13.8131 16.4644 13.8131 15.2775 14.5444 14.5444C15.2756 13.8131 16.4644 13.8131 17.1956 14.5444L27.2531 24.6019V21.1744C27.2531 20.1394 28.0931 19.2994 29.1281 19.2994C30.1631 19.2994 31.0031 20.1394 31.0031 21.1744V29.13C31.0031 30.165 30.1631 31.005 29.1281 31.005H21.1744C20.1394 31.005 19.2994 30.1631 19.2994 29.13C19.2994 28.095 20.1394 27.255 21.1744 27.255H24.6019Z" fill="black"/>
</svg>
