<svg width="20" height="21" viewBox="0 0 20 21" fill="none" xmlns="http://www.w3.org/2000/svg">
<path d="M9.33744 15.5379C9.42449 15.625 9.52784 15.694 9.64159 15.7411C9.75533 15.7882 9.87725 15.8125 10.0004 15.8125C10.1235 15.8125 10.2454 15.7882 10.3591 15.7411C10.4729 15.694 10.5762 15.625 10.6633 15.5379L14.1988 12.0024C14.3746 11.8266 14.4734 11.5881 14.4734 11.3395C14.4734 11.0908 14.3746 10.8524 14.1988 10.6766C14.023 10.5007 13.7845 10.402 13.5359 10.402C13.2873 10.402 13.0488 10.5007 12.873 10.6766L10.9379 12.6117V2.375C10.9379 2.12636 10.8391 1.8879 10.6633 1.71209C10.4875 1.53627 10.249 1.4375 10.0004 1.4375C9.75173 1.4375 9.51327 1.53627 9.33745 1.71209C9.16164 1.8879 9.06287 2.12636 9.06287 2.375V12.6117L7.12775 10.6766C6.95193 10.5007 6.71348 10.402 6.46484 10.402C6.2162 10.402 5.97774 10.5007 5.80193 10.6766C5.62611 10.8524 5.52734 11.0908 5.52734 11.3395C5.52734 11.5881 5.62611 11.8266 5.80193 12.0024L9.33744 15.5379Z" fill="black"/>
<path d="M18.125 9.5625C17.8764 9.5625 17.6379 9.66127 17.4621 9.83709C17.2863 10.0129 17.1875 10.2514 17.1875 10.5V17.6875H2.8125V10.5C2.8125 10.2514 2.71373 10.0129 2.53791 9.83709C2.3621 9.66127 2.12364 9.5625 1.875 9.5625C1.62636 9.5625 1.3879 9.66127 1.21209 9.83709C1.03627 10.0129 0.9375 10.2514 0.9375 10.5V18C0.9375 18.4144 1.10212 18.8118 1.39515 19.1049C1.68817 19.3979 2.0856 19.5625 2.5 19.5625H17.5C17.9144 19.5625 18.3118 19.3979 18.6049 19.1049C18.8979 18.8118 19.0625 18.4144 19.0625 18V10.5C19.0625 10.2514 18.9637 10.0129 18.7879 9.83709C18.6121 9.66127 18.3736 9.5625 18.125 9.5625Z" fill="black"/>
</svg>
