<svg width="45" height="45" viewBox="0 0 45 45" fill="none" xmlns="http://www.w3.org/2000/svg">
<path fill-rule="evenodd" clip-rule="evenodd" d="M20.625 31.6556C19.4006 31.3612 18.4013 30.7988 17.7975 30.1538C17.1788 29.49 16.875 28.7156 16.875 27.9169V24.5831C16.875 23.7844 17.1788 23.01 17.7975 22.3463C18.6863 21.3938 20.4356 20.625 22.5 20.625L22.6913 20.6269C24.6713 20.6738 26.34 21.4237 27.2006 22.3463C27.8213 23.01 28.125 23.7844 28.125 24.5831V27.9169C28.125 28.7156 27.8213 29.49 27.2006 30.1538C26.5988 30.7988 25.5994 31.3612 24.375 31.6556V37.5C24.375 38.535 23.535 39.375 22.5 39.375C21.465 39.375 20.625 38.535 20.625 37.5V31.6556ZM24.375 24.8475C24.2813 24.7838 24.1275 24.6881 24.0056 24.6394C23.5838 24.4669 23.0625 24.375 22.5 24.375C21.9375 24.375 21.4144 24.4669 20.9925 24.6394C20.8706 24.6881 20.7188 24.7838 20.625 24.8475V27.6525C20.7188 27.7162 20.8706 27.8119 20.9925 27.8606C21.4144 28.0331 21.9375 28.125 22.5 28.125C23.0625 28.125 23.5838 28.0331 24.0056 27.8606C24.1275 27.8119 24.2813 27.7162 24.375 27.6525V24.8475ZM22.5 13.125C26.0756 13.125 29.2313 14.1487 31.1963 15.6394C32.865 16.9031 33.75 18.5212 33.75 20.2087C33.75 21.2437 32.91 22.0837 31.875 22.0837C30.84 22.0837 30 21.2437 30 20.2087C30 19.5938 29.5406 19.0875 28.9331 18.6281C27.4838 17.5313 25.1325 16.875 22.5 16.875C19.8656 16.875 17.5144 17.5313 16.0669 18.6281C15.4594 19.0875 15 19.5938 15 20.2087C15 21.2437 14.16 22.0837 13.125 22.0837C12.09 22.0837 11.25 21.2437 11.25 20.2087C11.25 18.5212 12.1331 16.9031 13.8019 15.6394C15.7669 14.1487 18.9244 13.125 22.5 13.125ZM22.38 9.375C17.3119 9.39563 12.8044 10.7194 10.0144 12.8344C8.4975 13.9837 7.5 15.3413 7.5 16.875C7.5 17.91 6.66 18.75 5.625 18.75C4.59 18.75 3.75 17.91 3.75 16.875C3.75 14.2688 5.17125 11.7994 7.74938 9.84562C11.0813 7.32187 16.44 5.625 22.5 5.625H22.5713C28.6013 5.63813 33.9319 7.33125 37.2488 9.84562C39.8288 11.7994 41.25 14.2688 41.25 16.875C41.25 17.91 40.41 18.75 39.375 18.75C38.34 18.75 37.5 17.91 37.5 16.875C37.5 15.3413 36.5025 13.9837 34.9838 12.8344C32.1713 10.7025 27.6169 9.375 22.5 9.375H22.38Z" fill="black"/>
</svg>
