<svg width="92" height="66" viewBox="0 0 92 66" fill="none" xmlns="http://www.w3.org/2000/svg">
<mask id="path-1-inside-1_4304_359" fill="white">
<path d="M19.8146 0.578363C30.5684 0.578363 39.2932 9.30317 39.2932 20.057V39.5356C39.2932 53.9417 27.5249 65.5071 13.3217 65.5071C9.66945 65.5071 6.82881 62.6665 6.82881 59.0142C6.82881 55.5649 9.66945 52.5214 13.3217 52.5214C20.4233 52.5214 26.3074 46.8401 26.3074 39.5356V38.5211C24.0755 39.1298 22.0465 39.5356 19.8146 39.5356C8.85784 39.5356 0.335938 31.0137 0.335938 20.057C0.335938 9.30317 8.85784 0.578363 19.8146 0.578363ZM91.2362 20.057V39.5356C91.2362 53.9417 79.4679 65.5071 65.2647 65.5071C61.6125 65.5071 58.7718 62.6665 58.7718 59.0142C58.7718 55.5649 61.6125 52.5214 65.2647 52.5214C72.3663 52.5214 78.2505 46.8401 78.2505 39.5356V38.5211C76.0185 39.1298 73.9895 39.5356 71.7576 39.5356C60.8008 39.5356 52.2789 31.0137 52.2789 20.057C52.2789 9.30317 60.8008 0.578363 71.7576 0.578363C82.5114 0.578363 91.2362 9.30317 91.2362 20.057Z"/>
</mask>
<path d="M26.3074 38.5211H26.802V37.8736L26.1773 38.044L26.3074 38.5211ZM78.2505 38.5211H78.745V37.8736L78.1203 38.044L78.2505 38.5211ZM19.8146 1.07293C30.2952 1.07293 38.7986 9.57631 38.7986 20.057H39.7878C39.7878 9.03003 30.8415 0.0837975 19.8146 0.0837975V1.07293ZM38.7986 20.057V39.5356H39.7878V20.057H38.7986ZM38.7986 39.5356C38.7986 53.666 27.2542 65.0126 13.3217 65.0126V66.0017C27.7955 66.0017 39.7878 54.2173 39.7878 39.5356H38.7986ZM13.3217 65.0126C9.94259 65.0126 7.32338 62.3933 7.32338 59.0143H6.33425C6.33425 62.9396 9.39631 66.0017 13.3217 66.0017V65.0126ZM7.32338 59.0143C7.32338 55.828 9.95256 53.0159 13.3217 53.0159V52.0268C9.38633 52.0268 6.33425 55.3018 6.33425 59.0143H7.32338ZM13.3217 53.0159C20.6914 53.0159 26.802 47.1183 26.802 39.5356H25.8129C25.8129 46.5619 20.1552 52.0268 13.3217 52.0268V53.0159ZM26.802 39.5356V38.5211H25.8129V39.5356H26.802ZM26.1773 38.044C23.9648 38.6474 21.9838 39.0411 19.8146 39.0411V40.0302C22.1092 40.0302 24.1862 39.6122 26.4376 38.9982L26.1773 38.044ZM19.8146 39.0411C9.13098 39.0411 0.830503 30.7406 0.830503 20.057H-0.158628C-0.158628 31.2869 8.5847 40.0302 19.8146 40.0302V39.0411ZM0.830503 20.057C0.830503 9.57293 9.13434 1.07293 19.8146 1.07293V0.0837975C8.58134 0.0837975 -0.158628 9.0334 -0.158628 20.057H0.830503ZM90.7416 20.057V39.5356H91.7308V20.057H90.7416ZM90.7416 39.5356C90.7416 53.666 79.1972 65.0126 65.2647 65.0126V66.0017C79.7385 66.0017 91.7308 54.2173 91.7308 39.5356H90.7416ZM65.2647 65.0126C61.8856 65.0126 59.2664 62.3933 59.2664 59.0143H58.2773C58.2773 62.9396 61.3393 66.0017 65.2647 66.0017V65.0126ZM59.2664 59.0143C59.2664 55.828 61.8956 53.0159 65.2647 53.0159V52.0268C61.3293 52.0268 58.2773 55.3018 58.2773 59.0143H59.2664ZM65.2647 53.0159C72.6344 53.0159 78.745 47.1183 78.745 39.5356H77.7559C77.7559 46.5619 72.0982 52.0268 65.2647 52.0268V53.0159ZM78.745 39.5356V38.5211H77.7559V39.5356H78.745ZM78.1203 38.044C75.9078 38.6474 73.9268 39.0411 71.7576 39.0411V40.0302C74.0522 40.0302 76.1292 39.6122 78.3806 38.9982L78.1203 38.044ZM71.7576 39.0411C61.074 39.0411 52.7735 30.7406 52.7735 20.057H51.7844C51.7844 31.2869 60.5277 40.0302 71.7576 40.0302V39.0411ZM52.7735 20.057C52.7735 9.57293 61.0773 1.07293 71.7576 1.07293V0.0837975C60.5243 0.0837975 51.7844 9.0334 51.7844 20.057H52.7735ZM71.7576 1.07293C82.2383 1.07293 90.7416 9.57631 90.7416 20.057H91.7308C91.7308 9.03003 82.7845 0.0837975 71.7576 0.0837975V1.07293Z" fill="black" mask="url(#path-1-inside-1_4304_359)"/>
</svg>
