<svg width="40" height="40" viewBox="0 0 40 40" fill="none" xmlns="http://www.w3.org/2000/svg">
<path fill-rule="evenodd" clip-rule="evenodd" d="M3.33203 28.332V13.332C3.33203 11.0154 4.59536 8.82036 6.88703 7.0837C9.8487 4.84036 14.612 3.33203 19.9987 3.33203L20.502 3.33703C25.6804 3.42703 30.2404 4.91036 33.1087 7.0837C35.402 8.82036 36.6654 11.0154 36.6654 13.332V28.332C36.6654 28.9237 34.767 31.657 33.1087 32.9137C30.1487 35.157 25.3837 36.6654 19.9987 36.6654C19.0787 36.6654 18.332 35.9187 18.332 34.9987C18.332 34.0787 19.0787 33.332 19.9987 33.332C24.547 33.332 28.5954 32.152 31.0954 30.257C31.2087 30.172 31.317 30.0854 31.422 29.9987H28.332C27.4104 29.9987 26.6654 29.252 26.6654 28.332V18.332C26.6654 17.412 27.4104 16.6654 28.332 16.6654H33.332V13.332C33.332 11.9687 32.4454 10.762 31.0954 9.74036C28.5954 7.84536 24.547 6.66536 19.9987 6.66536C15.4504 6.66536 11.4004 7.84536 8.90036 9.74036C7.55203 10.762 6.66536 11.9687 6.66536 13.332V16.6654H11.6654C12.5854 16.6654 13.332 17.412 13.332 18.332V28.332C13.332 29.252 12.5854 29.9987 11.6654 29.9987H4.9987C4.07703 29.9987 3.33203 29.252 3.33203 28.332ZM6.66536 19.9987V26.6654H9.9987V19.9987H6.66536ZM29.9987 19.9987V26.6654H33.332V19.9987H29.9987Z" fill="black"/>
</svg>
