<svg width="40" height="40" viewBox="0 0 40 40" fill="none" xmlns="http://www.w3.org/2000/svg">
<path fill-rule="evenodd" clip-rule="evenodd" d="M8.33333 19.362L5.92 18.1554C5.35667 17.8737 5 17.297 5 16.6654V11.6654C5 10.7454 5.745 9.9987 6.66667 9.9987H33.3333C34.2533 9.9987 35 10.7454 35 11.6654V16.6654C35 17.297 34.6433 17.8737 34.0783 18.1554L31.6667 19.362V33.332C31.6667 33.9637 31.3083 34.542 30.7417 34.8237C27.8883 36.2437 24.1283 36.6654 20 36.6654C15.8717 36.6654 12.1117 36.2437 9.25667 34.8237C8.69 34.542 8.33333 33.9637 8.33333 33.332V19.362ZM31.6667 15.6354V13.332H8.33333V15.6354L10.745 16.842C11.31 17.1237 11.6667 17.7004 11.6667 18.332V32.242C13.9883 33.122 16.8767 33.332 20 33.332C23.1217 33.332 26.0117 33.122 28.3333 32.242V18.332C28.3333 17.7004 28.69 17.1237 29.2533 16.842L31.6667 15.6354ZM21.6667 18.332V28.332C21.6667 29.252 22.4133 29.9987 23.3333 29.9987C24.2533 29.9987 25 29.252 25 28.332V18.332C25 17.412 24.2533 16.6654 23.3333 16.6654C22.4133 16.6654 21.6667 17.412 21.6667 18.332ZM15 18.332V28.332C15 29.252 15.7467 29.9987 16.6667 29.9987C17.5867 29.9987 18.3333 29.252 18.3333 28.332V18.332C18.3333 17.412 17.5867 16.6654 16.6667 16.6654C15.7467 16.6654 15 17.412 15 18.332ZM15 6.66536H25C25.92 6.66536 26.6667 5.9187 26.6667 4.9987C26.6667 4.0787 25.92 3.33203 25 3.33203H15C14.08 3.33203 13.3333 4.0787 13.3333 4.9987C13.3333 5.9187 14.08 6.66536 15 6.66536Z" fill="black"/>
</svg>
