<svg width="40" height="40" viewBox="0 0 40 40" fill="none" xmlns="http://www.w3.org/2000/svg">
<path fill-rule="evenodd" clip-rule="evenodd" d="M18.332 20.4454C17.3354 21.022 16.6654 22.0987 16.6654 23.332C16.6654 24.252 15.9187 24.9987 14.9987 24.9987C14.0787 24.9987 13.332 24.252 13.332 23.332C13.332 21.492 11.8387 19.9987 9.9987 19.9987C8.1587 19.9987 6.66536 21.492 6.66536 23.332C6.66536 24.252 5.9187 24.9987 4.9987 24.9987C4.0787 24.9987 3.33203 24.252 3.33203 23.332V13.332C3.33203 11.0154 4.59536 8.82036 6.8887 7.0837C9.8487 4.84036 14.612 3.33203 19.9987 3.33203C25.3854 3.33203 30.1487 4.84036 33.1087 7.0837C35.402 8.82036 36.6654 11.0154 36.6654 13.332V23.332C36.6654 24.252 35.9187 24.9987 34.9987 24.9987C34.0787 24.9987 33.332 24.252 33.332 23.332C33.332 21.492 31.8387 19.9987 29.9987 19.9987C28.1587 19.9987 26.6654 21.492 26.6654 23.332C26.6654 24.252 25.9187 24.9987 24.9987 24.9987C24.0787 24.9987 23.332 24.252 23.332 23.332C23.332 22.0987 22.662 21.022 21.6654 20.4454V31.6654C21.6654 34.4254 19.4254 36.6654 16.6654 36.6654C13.9054 36.6654 11.6654 34.4254 11.6654 31.6654C11.6654 30.7454 12.412 29.9987 13.332 29.9987C14.2454 29.9987 14.987 30.7337 14.9987 31.6437V31.687C15.0104 32.597 15.752 33.332 16.6654 33.332C17.5854 33.332 18.332 32.5854 18.332 31.6654V20.4454ZM33.332 17.5587V13.332C33.332 11.9687 32.4454 10.762 31.097 9.74036C28.5954 7.84536 24.547 6.66536 19.9987 6.66536C15.4504 6.66536 11.402 7.84536 8.90036 9.74036C7.55203 10.762 6.66536 11.9687 6.66536 13.332V17.5587C7.64703 16.9904 8.78537 16.6654 9.9987 16.6654C11.9887 16.6654 13.777 17.5404 14.9987 18.9254C16.2204 17.5404 18.0087 16.6654 19.9987 16.6654C21.9887 16.6654 23.777 17.5404 24.9987 18.9254C26.2204 17.5404 28.0087 16.6654 29.9987 16.6654C31.212 16.6654 32.3504 16.9904 33.332 17.5587Z" fill="black"/>
</svg>
