<svg width="55" height="14" fill="none" xmlns="http://www.w3.org/2000/svg"><path d="M20.9.718c-1.594.531-2.383 1.234-4.466 3.98-1.742 2.298-2.491 2.876-3.631 2.803-.915-.059-1.342-.324-2.536-1.576-2.193-2.296-2.606-2.679-3.219-2.981-1.609-.792-3.464-.411-4.843.997-.631.643-1.43 1.871-1.523 2.338l-.054.275 1.316.436c.724.239 1.357.435 1.405.435.049 0 .206-.226.35-.502.325-.622.931-1.191 1.423-1.339.35-.105.397-.096.736.139.198.138.781.721 1.294 1.296 2.273 2.548 3.577 3.389 5.432 3.503.963.059 1.686-.102 2.722-.605.735-.357.996-.549 1.699-1.251.456-.455 1.33-1.489 1.942-2.297 1.686-2.224 2.376-2.808 3.341-2.822.946-.015 2.3 1.186 4.944 4.382 2.906 3.514 3.926 4.51 5.272 5.151.827.394 1.445.495 2.349.385 2.176-.266 3.991-1.814 5.298-4.521.759-1.574 1.358-2.439 2.418-3.497.78-.779 1.056-.99 1.745-1.33.785-.388.851-.405 1.65-.405.721 0 .899.034 1.336.25 1.321.653 2.556 2.133 3.77 4.517.326.641.609 1.09.677 1.075.132-.027 2.533-1.103 2.589-1.16.07-.07-1.259-2.579-1.8-3.398C50.552 1.99 48.214.519 45.658.668c-1.677.098-3.11.741-4.654 2.087-1.366 1.192-2.933 3.299-3.419 4.597-.246.66-.951 1.74-1.472 2.258-.446.442-1.069.792-1.583.889-.855.16-1.84-.709-4.687-4.135-2.908-3.5-4.49-4.965-5.991-5.549C23.119.529 21.615.48 20.9.718" fill-rule="evenodd" fill="#000"/></svg>