<svg width="86" height="63" viewBox="0 0 86 63" fill="none" xmlns="http://www.w3.org/2000/svg">
<g clip-path="url(#clip0_4385_1212)">
<path d="M79.2195 0.478477C81.0395 0.148477 82.8895 -0.111523 84.7395 0.0484774C84.8595 0.118477 85.0895 0.248477 85.2095 0.318477C85.7695 2.50848 85.5195 4.79848 85.5795 7.03848C85.7695 10.4785 85.4795 13.9285 85.5895 17.3685C85.5895 18.3985 85.5995 19.8485 84.4795 20.3185C83.1795 20.2185 82.1795 19.2685 81.1295 18.6085C79.7995 17.7885 78.4095 17.0685 77.0595 16.2785C75.6695 17.7185 74.8895 19.5885 73.6095 21.1085C71.5895 23.5985 69.5995 26.0985 67.6795 28.6685C65.2995 31.8485 62.5395 34.7185 60.1795 37.9085C59.1795 39.2685 58.0795 40.5485 57.0495 41.8885C52.4195 40.0385 47.3795 38.7685 43.5195 35.4385C40.0995 40.2385 36.2395 44.7185 33.2395 49.8085C32.7995 50.8285 31.5995 50.2185 30.8595 49.9485C27.3895 48.3485 23.7695 46.6885 21.1295 43.8385C18.0995 48.2585 14.9795 52.6085 12.0995 57.1285C10.9095 58.9785 9.93954 60.9685 8.57954 62.7085C7.83954 62.4185 7.11954 62.0685 6.48954 61.5985C4.62954 60.2385 2.65954 59.0485 0.899541 57.5585C-0.0904586 56.8685 -0.260459 55.3685 0.429541 54.4085C5.16954 46.0885 10.7495 38.2585 16.9295 30.9385C17.6295 30.2185 18.2695 29.2185 19.3695 29.1385C20.0095 29.1385 20.5595 29.5685 21.0995 29.8785C24.1595 32.0385 27.5995 33.5585 30.8495 35.4085C34.0495 31.8685 36.7695 27.9385 39.9295 24.3685C40.5995 23.6085 41.4195 22.8185 42.4995 22.8085C43.5295 22.9985 44.3795 23.6685 45.2695 24.1885C48.2895 26.0985 51.4595 27.7585 54.5395 29.5785C57.2895 25.6485 60.2995 21.9085 63.1795 18.0685C65.0495 15.4885 67.2595 13.1985 69.4595 10.9085C68.5795 10.0385 67.7595 9.10848 67.0495 8.09848C65.8295 6.37848 64.4395 4.71848 63.7295 2.69848C64.9295 2.26848 66.1995 2.26848 67.4595 2.31848C69.5195 2.36848 71.4895 1.70848 73.4895 1.32848C75.3995 0.948477 77.3395 0.828477 79.2495 0.478477H79.2195ZM76.6495 2.47848C73.2195 2.76848 69.9195 4.01848 66.4495 3.99848C67.7995 5.75848 68.9595 7.67848 70.4895 9.29848C70.8995 9.75848 71.5195 10.3785 71.0895 11.0385C70.1495 12.7385 68.5795 13.9885 67.3495 15.4785C63.4595 20.7285 59.1895 25.7085 55.4995 31.0985C54.8995 31.8885 53.7695 31.3685 53.0895 30.9585C49.9395 29.0285 46.8195 27.0585 43.7595 24.9885C43.2595 24.7185 42.7595 24.2585 42.1495 24.3485C41.4295 24.7385 40.9395 25.4185 40.4095 26.0285C37.7595 29.3185 35.2095 32.6885 32.6195 36.0285C32.1395 36.5985 31.6895 37.2885 30.9495 37.5385C30.3595 37.5085 29.8095 37.2385 29.2895 36.9785C25.8995 35.0685 22.5295 33.1285 19.3295 30.9085C16.2995 34.0785 13.7495 37.6685 11.0595 41.1185C7.40954 45.8985 4.32954 51.0885 0.739541 55.8985C3.10954 57.6985 5.60954 59.3185 8.06954 60.9885C11.5895 55.0985 15.4695 49.4285 19.4595 43.8485C19.9595 43.2185 20.5495 42.4385 21.4495 42.5085C24.3195 45.7785 28.4995 47.3985 32.3895 49.1085C34.9995 44.4285 38.2895 40.1785 41.4295 35.8585C42.0495 35.1485 42.3795 33.8685 43.4795 33.8385C44.8395 34.3785 45.8195 35.5585 47.1095 36.2385C50.1095 37.8885 53.4695 38.6785 56.5695 40.0985C58.4095 37.8485 60.0095 35.4185 61.8795 33.1885C66.3495 27.8885 70.2595 22.1485 74.6695 16.7985C75.4395 15.9485 75.9195 14.2385 77.3695 14.5385C79.6395 15.3485 81.8695 16.3685 83.7795 17.8685C83.9795 12.4685 83.9595 7.05848 83.8595 1.64848C81.4195 1.60848 79.0595 2.23848 76.6495 2.46848V2.47848Z" fill="black"/>
</g>
<defs>
<clipPath id="clip0_4385_1212">
<rect width="85.65" height="62.71" fill="white"/>
</clipPath>
</defs>
</svg>
